<?xml version="1.0" encoding="UTF-8"?>
<svg id="Layer_1" xmlns="http://www.w3.org/2000/svg" version="1.1" viewBox="0 0 24 24">
  <!-- Generator: Adobe Illustrator 29.8.3, SVG Export Plug-In . SVG Version: 2.1.1 Build 3)  -->
  <defs>
    <style>
      .st0 {
        fill: var(--color-logo, #fd9f4f);
      }

      .st1 {
        fill: #fff;
      }
    </style>
  </defs>
  <polygon class="st1" points="12 10.8 18 7.5 12 4.2 6 7.5 12 10.8"/>
  <path class="st0" d="M20.5,6.6l-7.9-4.4c-.2-.1-.4-.2-.6-.2s-.4,0-.6.2L3.5,6.6c-.3.2-.5.5-.5.9v9c0,.4.2.7.5.9l7.9,4.4c.2.1.4.2.6.2s.4,0,.6-.2l7.9-4.4c.3-.2.5-.5.5-.9V7.5c0-.4-.2-.7-.5-.9ZM12,10.8l-6-3.3,6-3.3,6,3.3-6,3.3Z"/>
</svg>